<svg xmlns="http://www.w3.org/2000/svg" viewBox="0 0 640 512"><path fill="#fff" d="M407.906,319.913l-230.8-2.928a4.58,4.58,0,0,1-3.632-1.926,4.648,4.648,0,0,1-.494-4.147,6.143,6.143,0,0,1,5.361-4.076L411.281,303.9c27.631-1.26,57.546-23.574,68.022-50.784l13.286-34.542a7.944,7.944,0,0,0,.524-2.936,7.735,7.735,0,0,0-7.7-7.7L198.578,206.1a5.325,5.325,0,0,1-4.092-2.066,5.37,5.37,0,0,1-.819-4.619L208.16,142.79c10.219-27.321,41.111-50.228,69.25-51.516L486.9,86.557a4.631,4.631,0,0,0,3.744-1.737,4.68,4.68,0,0,0,.776-4.119L488.615,71.2C473.4,31.512,428.872,0,386.237,0L243.9,3.263c-53.951,1.855-101.3,31.481-126.038,78.75L91.2,136.7c-19.285,36.82-3.138,81.168,35.547,97.93l378.4,82.668c3.8,1.2,6.073,4.5,5.4,8.753L508.856,338.2c-9.407,27.807-39.786,50.82-67.447,51.421l-339.85,4.441c-28.22.595-52.649,15.9-66.074,39.855L0,512H386.236c42.634,0,87.165-31.512,102.377-71.2l52.724-136.191c9.449-24.428,5.8-48.766-7.711-68.505C519.412,215.686,498.652,320.508,407.906,319.913Z"/></svg>
