<svg xmlns="http://www.w3.org/2000/svg" viewBox="0 0 32 32"><path fill="#fff" d="M26.6 7.4c-.4-1.2-1.2-2.2-2.2-3-.6-.4-1.2-.8-1.8-1.2-.8-.4-1.6-.6-2.4-.8-1.2-.2-2.4-.2-3.6 0-1.2.2-2.4.6-3.4 1.2-1 .6-1.8 1.4-2.4 2.4-.6 1-.8 2-.8 3.2 0 1.2.2 2.2.8 3.2.6 1 1.4 1.8 2.4 2.4 1 .6 2.2 1 3.4 1.2 1.2.2 2.4.2 3.6 0 .8-.2 1.6-.4 2.4-.8.6-.4 1.2-.8 1.8-1.2 1-.8 1.8-1.8 2.2-3 .4-1.2.4-2.4 0-3.6zm-7.2 5.2c-1.6 0-3-.6-4-1.6s-1.6-2.4-1.6-4 .6-3 1.6-4 2.4-1.6 4-1.6 3 .6 4 1.6 1.6 2.4 1.6 4-.6 3-1.6 4-2.4 1.6-4 1.6z"/><path fill="#fff" d="M19.4 12.6c0 .8-.6 1.4-1.4 1.4s-1.4-.6-1.4-1.4.6-1.4 1.4-1.4 1.4.6 1.4 1.4z"/></svg>
