<svg xmlns="http://www.w3.org/2000/svg" viewBox="0 0 32 32"><path fill="#fff" d="M15.9.2l-.2.1c-.2.1-.4.3-.5.5L11.6 7l-.2.4c-.1.2-.1.4-.1.6 0 .2.1.4.2.6l.3.3.3.3c.2.1.4.2.6.2h.6l.4-.2 3.6-6.2.2-.4c.1-.2.1-.4.1-.6 0-.2-.1-.4-.2-.6l-.3-.3-.3-.3c-.2-.1-.4-.2-.6-.2h-.6l-.4.2zM9.6 8.4l-.2.1c-.2.1-.4.3-.5.5L5.3 15l-.2.4c-.1.2-.1.4-.1.6 0 .2.1.4.2.6l.3.3.3.3c.2.1.4.2.6.2h.6l.4-.2 3.6-6.2.2-.4c.1-.2.1-.4.1-.6 0-.2-.1-.4-.2-.6l-.3-.3-.3-.3c-.2-.1-.4-.2-.6-.2h-.6l-.4.2zm12.6 0l-.2.1c-.2.1-.4.3-.5.5L17.9 15l-.2.4c-.1.2-.1.4-.1.6 0 .2.1.4.2.6l.3.3.3.3c.2.1.4.2.6.2h.6l.4-.2 3.6-6.2.2-.4c.1-.2.1-.4.1-.6 0-.2-.1-.4-.2-.6l-.3-.3-.3-.3c-.2-.1-.4-.2-.6-.2h-.6l-.4.2zM3.3 16.6l-.2.1c-.2.1-.4.3-.5.5L-.9 23l-.2.4c-.1.2-.1.4-.1.6 0 .2.1.4.2.6l.3.3.3.3c.2.1.4.2.6.2h.6l.4-.2 3.6-6.2.2-.4c.1-.2.1-.4.1-.6 0-.2-.1-.4-.2-.6l-.3-.3-.3-.3c-.2-.1-.4-.2-.6-.2h-.6l-.4.2zm12.6 0l-.2.1c-.2.1-.4.3-.5.5L11.6 23l-.2.4c-.1.2-.1.4-.1.6 0 .2.1.4.2.6l.3.3.3.3c.2.1.4.2.6.2h.6l.4-.2 3.6-6.2.2-.4c.1-.2.1-.4.1-.6 0-.2-.1-.4-.2-.6l-.3-.3-.3-.3c-.2-.1-.4-.2-.6-.2h-.6l-.4.2zm12.6 0l-.2.1c-.2.1-.4.3-.5.5L24.2 23l-.2.4c-.1.2-.1.4-.1.6 0 .2.1.4.2.6l.3.3.3.3c.2.1.4.2.6.2h.6l.4-.2 3.6-6.2.2-.4c.1-.2.1-.4.1-.6 0-.2-.1-.4-.2-.6l-.3-.3-.3-.3c-.2-.1-.4-.2-.6-.2h-.6l-.4.2zM9.6 24.8l-.2.1c-.2.1-.4.3-.5.5L5.3 31l-.2.4c-.1.2-.1.4-.1.6 0 .2.1.4.2.6l.3.3.3.3c.2.1.4.2.6.2h.6l.4-.2 3.6-6.2.2-.4c.1-.2.1-.4.1-.6 0-.2-.1-.4-.2-.6l-.3-.3-.3-.3c-.2-.1-.4-.2-.6-.2h-.6l-.4.2zm12.6 0l-.2.1c-.2.1-.4.3-.5.5L17.9 31l-.2.4c-.1.2-.1.4-.1.6 0 .2.1.4.2.6l.3.3.3.3c.2.1.4.2.6.2h.6l.4-.2 3.6-6.2.2-.4c.1-.2.1-.4.1-.6 0-.2-.1-.4-.2-.6l-.3-.3-.3-.3c-.2-.1-.4-.2-.6-.2h-.6l-.4.2z"/></svg>
