<svg xmlns="http://www.w3.org/2000/svg" viewBox="0 0 32 32"><path fill="#fff" d="M22.579 11.36c0.151 0.077 0.291 0.181 0.405 0.307l3.131-1.396-2.291-2.291-1.339 3.265c0.031 0.036 0.063 0.072 0.093 0.115zM16.079 9.76c0.391 0.521 0.62 1.167 0.62 1.865 0 0.011-0 0.021-0 0.032l0-0.002 4.437-1.975-2.14-2.14-2.916 2.219zM23.349 12.839l3.429-1.527c-0.182-0.206-0.427-0.364-0.702-0.453l-0.012-0.003-2.287 5.572c0.047-0.087 0.087-0.187 0.115-0.293l0.002-0.009c0.039-0.157 0.059-0.337 0.059-0.523 0-1.052-0.687-1.943-1.637-2.249l-0.017-0.005zM16.683 11.84l0.005 0.147c0.040 1.123 0.967 2.017 2.097 2.017 0.069 0 0.137-0.003 0.204-0.009l-0.009 0.001c0.059-0.003 0.128-0.005 0.197-0.005 1.131 0 2.057 0.895 2.097 2.015l0 0.005c0.001 0.043 0.001 0.093 0.001 0.144 0 1.181-0.459 2.255-1.208 3.052l0.002-0.002c-0.627 0.667-1.517 1.083-2.505 1.083-0.17 0-0.337-0.012-0.5-0.036l0.019 0.002c-0.144-0.022-0.311-0.035-0.481-0.035-0.989 0-1.879 0.416-2.508 1.084l-0.002 0.002c-0.747 0.795-1.206 1.869-1.206 3.050 0 0.051 0.001 0.101 0.003 0.151l-0-0.007c0.001 0.037 0.001 0.080 0.001 0.124 0 1.18-0.459 2.253-1.208 3.050l0.002-0.002c-0.627 0.667-1.517 1.083-2.505 1.083-0.17 0-0.337-0.012-0.5-0.036l0.019 0.002c-0.048 0.004-0.103 0.007-0.159 0.007-1.131 0-2.057-0.895-2.097-2.015l-0-0.005c-0.001-0.037-0.001-0.080-0.001-0.124 0-1.18 0.459-2.253 1.208-3.050l-0.002 0.002c0.627-0.667 1.517-1.083 2.505-1.083 0.17 0 0.337 0.012 0.5 0.036l-0.019-0.002c0.144 0.022 0.311 0.035 0.481 0.035 0.989 0 1.879-0.416 2.508-1.084l0.002-0.002c0.747-0.795 1.206-1.869 1.206-3.050 0-0.051-0.001-0.101-0.003-0.151l0 0.007c-0.001-0.037-0.001-0.080-0.001-0.124 0-1.18 0.459-2.253 1.208-3.050l-0.002 0.002c0.627-0.667 1.517-1.083 2.505-1.083 0.17 0 0.337 0.012 0.5 0.036l-0.019-0.002zM16.704 9.719l2.991-2.276-2.991-2.991-2.991 2.991zM15.925 11.84c-0.040-1.123-0.967-2.017-2.097-2.017-0.069 0-0.137 0.003-0.204 0.009l0.009-0.001c-0.059 0.003-0.128 0.005-0.197 0.005-1.131 0-2.057-0.895-2.097-2.015l-0-0.005c-0.001-0.037-0.001-0.080-0.001-0.124 0-1.18 0.459-2.253 1.208-3.050l-0.002 0.002c0.627-0.667 1.517-1.083 2.505-1.083 0.17 0 0.337 0.012 0.5 0.036l-0.019-0.002c0.144-0.022 0.311-0.035 0.481-0.035 0.989 0 1.879 0.416 2.508 1.084l0.002 0.002c0.747 0.795 1.206 1.869 1.206 3.050 0 0.051-0.001 0.101-0.003 0.151l0-0.007-0.005 0.147c-0.040 1.123-0.967 2.017-2.097 2.017-0.069 0-0.137-0.003-0.204-0.009l0.009 0.001c-0.059-0.003-0.128-0.005-0.197-0.005-0.005 0-0.011 0-0.016 0h0.001zM13.579 9.76l-2.916-2.219-2.14 2.14 4.437 1.975c-0-0.009-0-0.020-0-0.031 0-0.699 0.229-1.345 0.617-1.866l-0.006 0.008zM9.421 11.36c0.031-0.043 0.063-0.079 0.096-0.113l-0.001 0.001-1.339-3.265-2.291 2.291 3.131 1.396c0.113-0.127 0.253-0.231 0.411-0.305l0.008-0.003zM8.651 12.839c-0.967 0.311-1.654 1.202-1.654 2.254 0 0.186 0.022 0.367 0.063 0.54l-0.003-0.016c0.029 0.113 0.069 0.211 0.119 0.303l-0.003-0.005-2.287-5.572c-0.287 0.092-0.532 0.25-0.726 0.458l0.001-0.001zM7.053 16.235c-0.029 0.113-0.069 0.211-0.119 0.303l0.003-0.005 5.572 2.287c-0.092 0.287-0.25 0.532-0.458 0.726l0.001-0.001-6.083-0.853c-0.151-0.077-0.291-0.181-0.405-0.307l-0.001-0.001c-0.031 0.043-0.063 0.079-0.096 0.113l0.001-0.001 2.276 5.547c-0.113 0.127-0.253 0.231-0.411 0.305l-0.008 0.003 4.197 4.197 1.339-3.265c-0.031-0.036-0.063-0.072-0.093-0.115l-0.001-0.001c0.967-0.311 1.654-1.202 1.654-2.254 0-0.186-0.022-0.367-0.063-0.54l0.003 0.016c-0.029-0.113-0.069-0.211-0.119-0.303l0.003 0.005 5.572 2.287c-0.092 0.287-0.25 0.532-0.458 0.726l0.001-0.001-0.853 6.083c-0.077 0.151-0.181 0.291-0.307 0.405l-0.001 0.001 3.265 1.339 1.339-3.265c-0.031-0.036-0.063-0.072-0.093-0.115l-0.001-0.001c0.967-0.311 1.654-1.202 1.654-2.254 0-0.186-0.022-0.367-0.063-0.54l0.003 0.016c-0.029-0.113-0.069-0.211-0.119-0.303l0.003 0.005 5.572 2.287c-0.092 0.287-0.25 0.532-0.458 0.726l0.001-0.001-0.853 6.083c-0.077 0.151-0.181 0.291-0.307 0.405l-0.001 0.001 2.291 2.291 4.197-4.197c-0.166-0.077-0.306-0.181-0.419-0.308l-0.001-0.001 1.339-3.265-3.265-1.339c-0.036 0.031-0.072 0.063-0.115 0.093l-0.001 0.001c0.311-0.967 1.202-1.654 2.254-1.654 0.186 0 0.367 0.022 0.54 0.063l-0.016-0.003 2.287-5.572c0.287 0.092 0.532 0.25 0.726 0.458l-0.001-0.001l6.083 0.853c0.151 0.077 0.291 0.181 0.405 0.307l0.001 0.001 3.265-1.339-4.197-4.197-2.287 5.572c-0.113-0.127-0.253-0.231-0.411-0.305l-0.008-0.003 0.853-6.083c0.077-0.151 0.181-0.291 0.307-0.405l0.001-0.001-2.291-2.291-4.197 4.197c0.166 0.077 0.306 0.181 0.419 0.308l0.001 0.001-1.339 3.265 3.265 1.339c0.036-0.031 0.072-0.063 0.115-0.093l0.001-0.001c-0.311 0.967-1.202 1.654-2.254 1.654-0.186 0-0.367-0.022-0.54-0.063l0.016 0.003-2.287 5.572c-0.287-0.092-0.532-0.25-0.726-0.458l0.001 0.001-6.083-0.853c-0.151-0.077-0.291-0.181-0.405-0.307l-0.001-0.001-3.265 1.339 4.197 4.197 2.287-5.572c0.113 0.127 0.253 0.231 0.411 0.305l0.008 0.003-0.853 6.083c-0.077 0.151-0.181 0.291-0.307 0.405l-0.001 0.001 2.291 2.291 4.197-4.197c-0.166-0.077-0.306-0.181-0.419-0.308l-0.001-0.001 1.339-3.265-3.265-1.339c-0.036 0.031-0.072 0.063-0.115 0.093l-0.001 0.001c0.311-0.967 1.202-1.654 2.254-1.654 0.186 0 0.367 0.022 0.54 0.063l-0.016-0.003 2.287-5.572c0.287 0.092 0.532 0.25 0.726 0.458l-0.001-0.001l6.083 0.853c0.151 0.077 0.291 0.181 0.405 0.307l0.001 0.001 3.265-1.339-4.197-4.197-2.287 5.572z"/></svg>
